<?xml version="1.0" encoding="UTF-8" standalone="no"?>
<svg width="14px" height="54px" viewBox="0 0 14 54" version="1.1" xmlns="http://www.w3.org/2000/svg" xmlns:xlink="http://www.w3.org/1999/xlink">
    <!-- Generator: Sketch 39 (31667) - http://www.bohemiancoding.com/sketch -->
    <title>马 可 人</title>
    <desc>Created with Sketch.</desc>
    <defs></defs>
    <g id="Page-1" stroke="none" stroke-width="1" fill="none" fill-rule="evenodd">
        <path d="M0.952,9.074 L0.952,10.502 L9.842,10.502 L9.842,9.074 L0.952,9.074 Z M9.394,2.354 L8.82,6.232 L4.578,6.232 L5.166,3.11 L3.668,2.984 L2.73,7.66 L11.536,7.66 C11.424,9.746 11.256,10.964 11.032,11.328 C10.808,11.692 10.36,11.888 9.702,11.888 C9.114,11.888 8.456,11.832 7.742,11.748 L8.148,13.162 C8.736,13.19 9.254,13.218 9.702,13.232 C11.004,13.232 11.858,12.896 12.264,12.224 C12.67,11.552 12.95,9.564 13.118,6.232 L10.388,6.232 L11.074,0.926 L2.044,0.926 L2.044,2.354 L9.394,2.354 Z M0.714,21.248 L0.714,22.662 L10.122,22.662 L10.122,31.426 C10.122,31.818 9.94,32.028 9.604,32.028 C8.904,32.028 8.162,32 7.406,31.944 L7.742,33.358 L10.108,33.358 C11.088,33.358 11.592,32.826 11.592,31.79 L11.592,22.662 L13.328,22.662 L13.328,21.248 L0.714,21.248 Z M7.994,24.342 L2.212,24.342 L2.212,30.95 L3.612,30.95 L3.612,29.83 L7.994,29.83 L7.994,24.342 Z M3.612,28.514 L3.612,25.644 L6.608,25.644 L6.608,28.514 L3.612,28.514 Z M7.686,40.52 L6.202,40.52 C6.202,41.052 6.188,41.78 6.188,42.718 C6.076,46.736 4.158,49.872 0.406,52.112 L1.302,53.428 C4.214,51.552 6.132,49.186 7.056,46.33 C8.134,49.284 9.982,51.636 12.6,53.4 L13.58,52.112 C10.402,50.166 8.4,47.352 7.588,43.67 C7.644,42.802 7.686,41.752 7.686,40.52 L7.686,40.52 Z" id="马-可-人" fill="#FF0000"></path>
    </g>
</svg>